<svg xmlns="http://www.w3.org/2000/svg" xmlns:xlink="http://www.w3.org/1999/xlink" width="100%" height="100%" viewBox="0 0 1700 1700">
<line x1="45" y1="49" x2="1655" y2="49" stroke="black" stroke-width="8"></line>
<line x1="49" y1="138" x2="1651" y2="138" stroke="black" stroke-width="4"></line>
<line x1="49" y1="227" x2="1651" y2="227" stroke="black" stroke-width="4"></line>
<line x1="49" y1="316" x2="1651" y2="316" stroke="black" stroke-width="4"></line>
<line x1="49" y1="405" x2="1651" y2="405" stroke="black" stroke-width="4"></line>
<line x1="49" y1="494" x2="1651" y2="494" stroke="black" stroke-width="4"></line>
<line x1="49" y1="583" x2="1651" y2="583" stroke="black" stroke-width="4"></line>
<line x1="49" y1="672" x2="1651" y2="672" stroke="black" stroke-width="4"></line>
<line x1="49" y1="761" x2="1651" y2="761" stroke="black" stroke-width="4"></line>
<line x1="49" y1="850" x2="1651" y2="850" stroke="black" stroke-width="4"></line>
<line x1="49" y1="939" x2="1651" y2="939" stroke="black" stroke-width="4"></line>
<line x1="49" y1="1028" x2="1651" y2="1028" stroke="black" stroke-width="4"></line>
<line x1="49" y1="1117" x2="1651" y2="1117" stroke="black" stroke-width="4"></line>
<line x1="49" y1="1206" x2="1651" y2="1206" stroke="black" stroke-width="4"></line>
<line x1="49" y1="1295" x2="1651" y2="1295" stroke="black" stroke-width="4"></line>
<line x1="49" y1="1384" x2="1651" y2="1384" stroke="black" stroke-width="4"></line>
<line x1="49" y1="1473" x2="1651" y2="1473" stroke="black" stroke-width="4"></line>
<line x1="49" y1="1562" x2="1651" y2="1562" stroke="black" stroke-width="4"></line>
<line x1="45" y1="1651" x2="1655" y2="1651" stroke="black" stroke-width="8"></line>
<line x1="49" y1="45" x2="49" y2="1655" stroke="black" stroke-width="8"></line>
<line x1="138" y1="49" x2="138" y2="1651" stroke="black" stroke-width="4"></line>
<line x1="227" y1="49" x2="227" y2="1651" stroke="black" stroke-width="4"></line>
<line x1="316" y1="49" x2="316" y2="1651" stroke="black" stroke-width="4"></line>
<line x1="405" y1="49" x2="405" y2="1651" stroke="black" stroke-width="4"></line>
<line x1="494" y1="49" x2="494" y2="1651" stroke="black" stroke-width="4"></line>
<line x1="583" y1="49" x2="583" y2="1651" stroke="black" stroke-width="4"></line>
<line x1="672" y1="49" x2="672" y2="1651" stroke="black" stroke-width="4"></line>
<line x1="761" y1="49" x2="761" y2="1651" stroke="black" stroke-width="4"></line>
<line x1="850" y1="49" x2="850" y2="1651" stroke="black" stroke-width="4"></line>
<line x1="939" y1="49" x2="939" y2="1651" stroke="black" stroke-width="4"></line>
<line x1="1028" y1="49" x2="1028" y2="1651" stroke="black" stroke-width="4"></line>
<line x1="1117" y1="49" x2="1117" y2="1651" stroke="black" stroke-width="4"></line>
<line x1="1206" y1="49" x2="1206" y2="1651" stroke="black" stroke-width="4"></line>
<line x1="1295" y1="49" x2="1295" y2="1651" stroke="black" stroke-width="4"></line>
<line x1="1384" y1="49" x2="1384" y2="1651" stroke="black" stroke-width="4"></line>
<line x1="1473" y1="49" x2="1473" y2="1651" stroke="black" stroke-width="4"></line>
<line x1="1562" y1="49" x2="1562" y2="1651" stroke="black" stroke-width="4"></line>
<line x1="1651" y1="49" x2="1651" y2="1651" stroke="black" stroke-width="8"></line>
<circle cx="316" cy="316" r="11" fill="black"></circle><circle cx="850" cy="850" r="11" fill="black"></circle><circle cx="1384" cy="1384" r="11" fill="black"></circle><circle cx="316" cy="850" r="11" fill="black"></circle><circle cx="316" cy="1384" r="11" fill="black"></circle><circle cx="850" cy="316" r="11" fill="black"></circle><circle cx="850" cy="1384" r="11" fill="black"></circle><circle cx="1384" cy="316" r="11" fill="black"></circle><circle cx="1384" cy="850" r="11" fill="black"></circle></svg>
