<?xml version="1.0" encoding="UTF-8" standalone="no"?>
<!-- Created with Inkscape (http://www.inkscape.org/) -->

<svg
   xmlns:dc="http://purl.org/dc/elements/1.1/"
   xmlns:cc="http://creativecommons.org/ns#"
   xmlns:rdf="http://www.w3.org/1999/02/22-rdf-syntax-ns#"
   xmlns:svg="http://www.w3.org/2000/svg"
   xmlns="http://www.w3.org/2000/svg"
   xmlns:sodipodi="http://sodipodi.sourceforge.net/DTD/sodipodi-0.dtd"
   xmlns:inkscape="http://www.inkscape.org/namespaces/inkscape"
   width="512"
   height="512"
   id="svg2"
   version="1.1"
   inkscape:version="0.48.2 r9819"
   sodipodi:docname="icon-settings.svg"
   inkscape:export-filename="/c/go_ginkgo/app/images/icon-settings.png"
   inkscape:export-xdpi="90"
   inkscape:export-ydpi="90">
  <defs
     id="defs4" />
  <sodipodi:namedview
     id="base"
     pagecolor="#ffffff"
     bordercolor="#666666"
     borderopacity="1.0"
     inkscape:pageopacity="0.0"
     inkscape:pageshadow="2"
     inkscape:zoom="0.98994949"
     inkscape:cx="-155.90409"
     inkscape:cy="262.85411"
     inkscape:document-units="px"
     inkscape:current-layer="layer1"
     showgrid="false"
     inkscape:window-width="1436"
     inkscape:window-height="856"
     inkscape:window-x="4"
     inkscape:window-y="0"
     inkscape:window-maximized="1"
     showguides="true"
     inkscape:guide-bbox="true">
    <sodipodi:guide
       orientation="1,0"
       position="256,256"
       id="guide7267" />
    <inkscape:grid
       type="xygrid"
       id="grid7269" />
    <sodipodi:guide
       orientation="0,1"
       position="256,256"
       id="guide7271" />
    <sodipodi:guide
       orientation="0.70710678,-0.70710678"
       position="256,256"
       id="guide8162" />
    <sodipodi:guide
       orientation="-0.70710678,-0.70710678"
       position="256,256"
       id="guide8166" />
    <sodipodi:guide
       orientation="1,0"
       position="32,0"
       id="guide4603" />
    <sodipodi:guide
       orientation="1,0"
       position="480,0"
       id="guide4605" />
    <sodipodi:guide
       orientation="0,1"
       position="0,480"
       id="guide5200" />
    <sodipodi:guide
       orientation="0,1"
       position="0,32"
       id="guide5202" />
    <sodipodi:guide
       orientation="1,0"
       position="128,0"
       id="guide5278" />
    <sodipodi:guide
       orientation="1,0"
       position="384,0"
       id="guide5280" />
    <sodipodi:guide
       orientation="0,1"
       position="0,384"
       id="guide5282" />
    <sodipodi:guide
       orientation="0,1"
       position="0,128"
       id="guide5284" />
  </sodipodi:namedview>
  <metadata
     id="metadata7">
    <rdf:RDF>
      <cc:Work
         rdf:about="">
        <dc:format>image/svg+xml</dc:format>
        <dc:type
           rdf:resource="http://purl.org/dc/dcmitype/StillImage" />
        <dc:title />
      </cc:Work>
    </rdf:RDF>
  </metadata>
  <g
     inkscape:label="Layer 1"
     inkscape:groupmode="layer"
     id="layer1"
     transform="translate(0,-540.36218)">
    <path
       style="fill:#f6f6f6;fill-opacity:1;stroke:none"
       d="m 255.99999,603.37335 c -5.12478,0 -10.21468,0.20017 -15.23879,0.59232 l -19.81582,61.57442 -47.97797,-43.42787 c -9.21594,4.39889 -18.02035,9.49152 -26.35827,15.2388 l 13.62338,63.24369 -63.243689,-13.62338 c -5.747273,8.33792 -10.83991,17.14233 -15.238795,26.35827 l 43.427874,47.97797 -61.574424,19.81582 c -0.392147,5.02411 -0.592321,10.11401 -0.592321,15.23879 0,5.12479 0.200174,10.21469 0.592321,15.2388 l 61.574424,19.81582 -43.427874,47.97797 c 4.398885,9.21594 9.491522,18.02035 15.238795,26.35826 l 63.243689,-13.62337 -13.62338,63.24369 c 8.33792,5.74728 17.14233,10.83991 26.35827,15.23879 l 47.97797,-43.42787 19.81582,61.57442 c 5.02411,0.39215 10.11401,0.59233 15.23879,0.59233 5.12479,0 10.21469,-0.20018 15.2388,-0.59233 l 19.81582,-61.57442 47.97798,43.42787 c 9.21593,-4.39888 18.02035,-9.49151 26.35826,-15.23879 l -13.62338,-63.24369 63.24369,13.62337 c 5.74728,-8.33791 10.83991,-17.14232 15.23879,-26.35826 l -43.42786,-47.97797 61.57442,-19.81582 c 0.39215,-5.02411 0.59232,-10.11401 0.59232,-15.2388 0,-5.12478 -0.20017,-10.21468 -0.59232,-15.23879 l -61.57442,-19.81582 43.42786,-47.97797 c -4.39888,-9.21595 -9.49151,-18.02035 -15.23879,-26.35827 l -63.24369,13.62338 13.62338,-63.24369 c -8.33792,-5.74728 -17.14233,-10.83991 -26.35826,-15.2388 l -47.97798,43.42787 -19.81582,-61.57442 c -5.02411,-0.39215 -10.11401,-0.59232 -15.2388,-0.59232 z m 0,118.32951 c 41.23376,0 74.65933,33.42556 74.65933,74.65932 0,41.23376 -33.42557,74.65933 -74.65933,74.65933 -41.23376,0 -74.65932,-33.42557 -74.65932,-74.65933 0,-41.23376 33.42556,-74.65932 74.65932,-74.65932 z"
       id="path3911"
       inkscape:connector-curvature="0" />
    <path
       sodipodi:type="arc"
       style="fill:none;stroke:#f6f6f6;stroke-width:96;stroke-miterlimit:4;stroke-opacity:1;stroke-dasharray:none"
       id="path3135"
       sodipodi:cx="256"
       sodipodi:cy="256"
       sodipodi:rx="128"
       sodipodi:ry="128"
       d="m 384,256 a 128,128 0 1 1 -256,0 128,128 0 1 1 256,0 z"
       transform="matrix(0.86155729,0,0,0.86155729,35.441334,575.80351)" />
  </g>
</svg>
